<svg width="20" height="20" viewBox="0 0 20 20" fill="none" xmlns="http://www.w3.org/2000/svg">
<g clip-path="url(#clip0_15_376)">
<path d="M19.9988 9.88235C20.0036 10.6666 19.9279 11.3825 19.7838 12.0887C19.6721 12.6376 19.486 13.166 19.2987 13.6957C18.9565 14.6662 18.4161 15.5201 17.7905 16.3236C17.5948 16.5746 17.3799 16.8137 17.1493 17.0371C17.0917 17.0923 17.0533 17.1055 16.9908 17.0395C16.1383 16.1375 15.2449 15.2775 14.3708 14.3959C14.2147 14.2386 14.2147 14.2422 14.3635 14.0861C15.3218 13.076 15.8501 11.8773 15.975 10.4901C16.0626 9.52924 15.8873 8.61404 15.5319 7.73366C15.359 7.30368 15.1753 6.8665 14.8799 6.50378C14.5425 6.08942 14.169 5.70508 13.7572 5.36037C13.0079 4.73222 12.1385 4.35509 11.1935 4.1437C10.8237 4.06083 10.443 4.00198 10.0648 4.00919C9.26508 4.0236 8.48939 4.16652 7.74251 4.47399C6.93799 4.80669 6.23554 5.2775 5.64356 5.91166C5.21489 6.37046 4.87747 6.89292 4.59169 7.45502C4.15821 8.30657 3.99611 9.21096 4.00452 10.1526C4.01412 11.0918 4.2939 11.9614 4.72258 12.7913C4.97714 13.2849 5.27973 13.7389 5.69039 14.1149C5.81407 14.229 5.72402 14.2974 5.64957 14.3719C5.00235 15.0193 4.35514 15.6666 3.70793 16.314C3.46777 16.5542 3.22522 16.7944 2.98626 17.0358C2.92502 17.0971 2.8866 17.1139 2.82296 17.0322C2.50476 16.6215 2.16614 16.2251 1.85994 15.806C1.45168 15.2487 1.11066 14.6505 0.836888 14.0128C0.555908 13.3582 0.328963 12.6856 0.19928 11.9854C0.0683961 11.2816 -0.0132561 10.5718 0.00115308 9.85353C0.0395777 7.93424 0.581124 6.17109 1.61619 4.55687C2.14933 3.72574 2.80255 3.0003 3.55303 2.35893C4.01892 1.96138 4.51844 1.61308 5.05038 1.31161C5.80207 0.885236 6.59577 0.564554 7.43271 0.342359C8.3489 0.098544 9.27589 -0.0203606 10.2209 0.00245948C11.0434 0.0228774 11.8515 0.135777 12.6464 0.357972C13.6923 0.649829 14.6649 1.09662 15.5631 1.69715C16.077 2.04065 16.5862 2.39977 17.0256 2.84176C17.4027 3.22129 17.7341 3.63806 18.0583 4.06443C18.6335 4.8211 19.0646 5.64743 19.3864 6.53741C19.4356 6.67313 19.516 6.79684 19.5473 6.94097C19.6854 7.57632 19.8583 8.20328 19.9339 8.85065C19.9759 9.21337 20.0048 9.57728 19.9964 9.88115L19.9988 9.88235Z" fill="url(#paint0_linear_15_376)"/>
<path d="M9.95799 20C8.97817 19.9784 8.01755 19.8415 7.07975 19.5496C6.86601 19.4836 6.86241 19.4619 6.93446 19.2481C7.87946 16.4257 8.82207 13.602 9.76587 10.7783C9.82591 10.5981 9.87874 10.4156 9.93638 10.2342C9.94839 10.1946 9.93878 10.1297 10.0012 10.1333C10.0468 10.1357 10.0505 10.1898 10.0625 10.227C10.1381 10.466 10.209 10.705 10.2882 10.9428C10.9834 13.0315 11.6787 15.1201 12.3751 17.2075C12.6045 17.8958 12.8386 18.5816 13.0716 19.2686C13.1412 19.4751 13.1352 19.498 12.9287 19.5544C12.1458 19.767 11.3593 19.9472 10.5428 19.9736C10.3482 19.9796 10.1537 19.9976 9.95919 19.9988L9.95799 20Z" fill="#2CAC56"/>
</g>
<defs>
<linearGradient id="paint0_linear_15_376" x1="9.99924" y1="-0.000305176" x2="9.99924" y2="17.0878" gradientUnits="userSpaceOnUse">
<stop stop-color="#5AC27C"/>
<stop offset="1" stop-color="#B2E235"/>
</linearGradient>
<clipPath id="clip0_15_376">
<rect width="20" height="20" fill="white"/>
</clipPath>
</defs>
</svg>
