<svg width="1440" height="1024" viewBox="0 0 1440 1024" fill="none" xmlns="http://www.w3.org/2000/svg">
<mask id="mask0_15_300" style="mask-type:alpha" maskUnits="userSpaceOnUse" x="-16" y="0" width="1456" height="1024">
<rect x="-16" width="1456" height="1024" fill="url(#paint0_radial_15_300)"/>
</mask>
<g mask="url(#mask0_15_300)">
<path d="M1558 1037H-118V-13H1558V1037ZM-115.832 1034.84H1555.83V-10.8315H-115.832V1034.84Z" fill="white" fill-opacity="0.5"/>
<path d="M1556.92 982.445H-116.916V984.613H1556.92V982.445Z" fill="white" fill-opacity="0.5"/>
<path d="M1556.92 930.053H-116.916V932.222H1556.92V930.053Z" fill="white" fill-opacity="0.5"/>
<path d="M1556.92 877.661H-116.916V879.83H1556.92V877.661Z" fill="white" fill-opacity="0.5"/>
<path d="M1556.92 825.269H-116.916V827.438H1556.92V825.269Z" fill="white" fill-opacity="0.5"/>
<path d="M1556.92 772.878H-116.916V775.046H1556.92V772.878Z" fill="white" fill-opacity="0.5"/>
<path d="M1556.92 720.486H-116.916V722.654H1556.92V720.486Z" fill="white" fill-opacity="0.5"/>
<path d="M1556.92 668.094H-116.916V670.262H1556.92V668.094Z" fill="white" fill-opacity="0.5"/>
<path d="M1556.92 615.702H-116.916V617.871H1556.92V615.702Z" fill="white" fill-opacity="0.5"/>
<path d="M1556.92 563.31H-116.916V565.479H1556.92V563.31Z" fill="white" fill-opacity="0.5"/>
<path d="M1556.92 510.918H-116.916V513.087H1556.92V510.918Z" fill="white" fill-opacity="0.5"/>
<path d="M1556.92 458.526H-116.916V460.695H1556.92V458.526Z" fill="white" fill-opacity="0.5"/>
<path d="M1556.92 406.135H-116.916V408.303H1556.92V406.135Z" fill="white" fill-opacity="0.5"/>
<path d="M1556.92 353.743H-116.916V355.911H1556.92V353.743Z" fill="white" fill-opacity="0.5"/>
<path d="M1556.92 301.351H-116.916V303.52H1556.92V301.351Z" fill="white" fill-opacity="0.5"/>
<path d="M1556.92 248.959H-116.916V251.128H1556.92V248.959Z" fill="white" fill-opacity="0.5"/>
<path d="M1556.92 196.567H-116.916V198.736H1556.92V196.567Z" fill="white" fill-opacity="0.5"/>
<path d="M1556.92 144.176H-116.916V146.344H1556.92V144.176Z" fill="white" fill-opacity="0.5"/>
<path d="M1556.92 91.7837H-116.916V93.9522H1556.92V91.7837Z" fill="white" fill-opacity="0.5"/>
<path d="M1556.92 39.3918H-116.916V41.5603H1556.92V39.3918Z" fill="white" fill-opacity="0.5"/>
<path d="M1405.83 -11.9157H1403.67V1035.92H1405.83V-11.9157Z" fill="white" fill-opacity="0.5"/>
<path d="M1355.11 -11.9157H1352.95V1035.92H1355.11V-11.9157Z" fill="white" fill-opacity="0.5"/>
<path d="M1304.39 -11.9157H1302.22V1035.92H1304.39V-11.9157Z" fill="white" fill-opacity="0.5"/>
<path d="M1253.66 -11.9157H1251.5V1035.92H1253.66V-11.9157Z" fill="white" fill-opacity="0.5"/>
<path d="M1202.94 -11.9157H1200.77V1035.92H1202.94V-11.9157Z" fill="white" fill-opacity="0.5"/>
<path d="M1152.22 -11.9157H1150.05V1035.92H1152.22V-11.9157Z" fill="white" fill-opacity="0.5"/>
<path d="M1101.5 -11.9157H1099.33V1035.92H1101.5V-11.9157Z" fill="white" fill-opacity="0.5"/>
<path d="M1050.78 -11.9157H1048.61V1035.92H1050.78V-11.9157Z" fill="white" fill-opacity="0.5"/>
<path d="M1000.06 -11.9157H997.888V1035.92H1000.06V-11.9157Z" fill="white" fill-opacity="0.5"/>
<path d="M949.334 -11.9157H947.167V1035.92H949.334V-11.9157Z" fill="white" fill-opacity="0.5"/>
<path d="M898.612 -11.9157H896.445V1035.92H898.612V-11.9157Z" fill="white" fill-opacity="0.5"/>
<path d="M847.891 -11.9157H845.723V1035.92H847.891V-11.9157Z" fill="white" fill-opacity="0.5"/>
<path d="M797.169 -11.9157H795.001V1035.92H797.169V-11.9157Z" fill="white" fill-opacity="0.5"/>
<path d="M746.447 -11.9157H744.28V1035.92H746.447V-11.9157Z" fill="white" fill-opacity="0.5"/>
<path d="M695.721 -11.9157H693.553V1035.92H695.721V-11.9157Z" fill="white" fill-opacity="0.5"/>
<path d="M644.999 -11.9157H642.831V1035.92H644.999V-11.9157Z" fill="white" fill-opacity="0.5"/>
<path d="M594.277 -11.9157H592.109V1035.92H594.277V-11.9157Z" fill="white" fill-opacity="0.5"/>
<path d="M543.555 -11.9157H541.387V1035.92H543.555V-11.9157Z" fill="white" fill-opacity="0.5"/>
<path d="M492.834 -11.9157H490.666V1035.92H492.834V-11.9157Z" fill="white" fill-opacity="0.5"/>
<path d="M442.112 -11.9157H439.944V1035.92H442.112V-11.9157Z" fill="white" fill-opacity="0.5"/>
<path d="M391.39 -11.9157H389.222V1035.92H391.39V-11.9157Z" fill="white" fill-opacity="0.5"/>
<path d="M340.668 -11.9157H338.5V1035.92H340.668V-11.9157Z" fill="white" fill-opacity="0.5"/>
<path d="M289.947 -11.9157H287.779V1035.92H289.947V-11.9157Z" fill="white" fill-opacity="0.5"/>
<path d="M239.225 -11.9157H237.057V1035.92H239.225V-11.9157Z" fill="white" fill-opacity="0.5"/>
<path d="M188.503 -11.9157H186.335V1035.92H188.503V-11.9157Z" fill="white" fill-opacity="0.5"/>
<path d="M137.782 -11.9157H135.614V1035.92H137.782V-11.9157Z" fill="white" fill-opacity="0.5"/>
<path d="M87.06 -11.9157H84.8921V1035.92H87.06V-11.9157Z" fill="white" fill-opacity="0.5"/>
<path d="M36.3329 -11.9157H34.165V1035.92H36.3329V-11.9157Z" fill="white" fill-opacity="0.5"/>
</g>
<defs>
<radialGradient id="paint0_radial_15_300" cx="0" cy="0" r="1" gradientUnits="userSpaceOnUse" gradientTransform="translate(1440 475.5) rotate(180) scale(548.5 548.5)">
<stop stop-color="#D9D9D9" stop-opacity="0.23"/>
<stop offset="1" stop-color="#737373" stop-opacity="0"/>
</radialGradient>
</defs>
</svg>
