<svg xmlns="http://www.w3.org/2000/svg" width="28" height="28" viewBox="0 0 28 28"><defs><style>.a{fill:#1ba27a;}.b{fill:#fff;}</style></defs><g transform="translate(-4.174 -2.369)"><path class="a" d="M32.174,16.369a14,14,0,1,1-14-14,14,14,0,0,1,14,14" transform="translate(0 0)"/><path class="b" d="M283.588,259.266H270.331v3.2h5.028v4.7h3.2v-4.7h5.028Z" transform="translate(-258.843 -249.837)"/><path class="b" d="M213.354,454.675c-4.159,0-7.532-.658-7.532-1.47s3.372-1.47,7.532-1.47,7.531.658,7.531,1.47-3.372,1.47-7.531,1.47m8.457-1.225c0-1.047-3.786-1.9-8.457-1.9s-8.457.849-8.457,1.9c0,.922,2.936,1.691,6.826,1.861v6.753h3.2v-6.75c3.92-.165,6.887-.936,6.887-1.863" transform="translate(-195.207 -436.841)"/></g></svg>