<svg width="19" height="19" viewBox="0 0 19 19" fill="none" xmlns="http://www.w3.org/2000/svg">
<g clip-path="url(#clip0_15_479)">
<path d="M0 7.0651C0.0780822 6.58462 0.14215 6.10212 0.280295 5.63381C0.70274 4.19442 1.46154 2.96992 2.57071 1.97451C3.70991 0.950714 5.0333 0.310082 6.54088 0.0870777C8.30674 -0.174446 9.9705 0.149924 11.5181 1.05411C12.7594 1.77786 13.7204 2.78341 14.4132 4.04642C14.9337 4.99724 15.24 6.02103 15.3301 7.11173C15.4663 8.76602 15.1219 10.3068 14.293 11.734C14.209 11.8779 14.239 11.959 14.3471 12.0685C15.7226 13.4552 17.092 14.8459 18.4654 16.2346C18.8238 16.5975 19.022 17.0192 18.998 17.5443C18.966 18.2316 18.3934 18.8762 17.7187 18.9796C17.146 19.0668 16.6776 18.8783 16.2771 18.4708C14.9337 17.1064 13.5843 15.7461 12.2429 14.3776C12.0987 14.2296 12.0006 14.2134 11.8264 14.329C10.6352 15.1156 9.32381 15.521 7.89831 15.5656C5.96027 15.6265 4.24046 15.0223 2.76291 13.7735C1.16723 12.4273 0.246259 10.6859 0.0220232 8.58153C0.018019 8.55112 0.00800843 8.52071 0 8.4903C0 8.01388 0 7.53949 0 7.06307V7.0651ZM12.8255 7.78277C12.8455 4.94655 10.5411 2.55838 7.65806 2.56648C4.89115 2.57459 2.51064 4.80667 2.51064 7.79088C2.51064 10.7102 4.79104 13.0153 7.67408 13.0173C10.6152 13.0173 12.8475 10.5967 12.8255 7.78479V7.78277Z" fill="black"/>
</g>
<defs>
<clipPath id="clip0_15_479">
<rect width="19" height="19" fill="white"/>
</clipPath>
</defs>
</svg>
