<svg width="20" height="20" viewBox="0 0 20 20" fill="none" xmlns="http://www.w3.org/2000/svg">
<path d="M9.99989 0C10.2827 0 10.5504 0.126494 10.7316 0.344471L14.9455 5.4336L18.5194 3.03586C18.6776 2.93003 18.8631 2.8741 19.0525 2.8751C19.2419 2.87611 19.4268 2.934 19.5839 3.04151C19.9044 3.26118 20.0606 3.65478 19.9783 4.03652L17.5972 15.0568C17.55 15.2716 17.432 15.4635 17.2627 15.6008C17.0935 15.7381 16.8832 15.8126 16.6666 15.8118H3.33315C3.11661 15.8126 2.9063 15.7381 2.73706 15.6008C2.56782 15.4635 2.44981 15.2716 2.40258 15.0568L0.0214436 4.03652C-0.0185619 3.84958 -0.00233997 3.65474 0.0680023 3.4773C0.138345 3.29986 0.259556 3.14802 0.415892 3.04151C0.573009 2.934 0.757885 2.87611 0.947281 2.8751C1.13668 2.8741 1.32214 2.93003 1.48035 3.03586L5.05428 5.4336L9.26821 0.344471C9.44988 0.126494 9.71711 0 9.99989 0ZM8.54154 11.6708C8.54154 12.1903 8.9771 12.6116 9.51377 12.6116H10.486C11.0227 12.6116 11.4582 12.1903 11.4582 11.6708C11.4582 11.1512 11.0227 10.7294 10.486 10.7294H9.51377C8.9771 10.7294 8.54154 11.1507 8.54154 11.6708Z" fill="url(#paint0_linear_2004_554)"/>
<path d="M2.3999 18.2587C2.3999 17.7391 2.83546 17.3179 3.37214 17.3179H16.9834C17.3306 17.3179 17.6517 17.4969 17.8256 17.7883C17.9109 17.93 17.956 18.0929 17.956 18.259C17.956 18.425 17.9109 18.5879 17.8256 18.7296C17.6517 19.0205 17.3312 19.2 16.9834 19.2H3.37214C2.83546 19.2 2.3999 18.7788 2.3999 18.2587Z" fill="url(#paint1_linear_2004_554)"/>
<defs>
<linearGradient id="paint0_linear_2004_554" x1="10" y1="0" x2="10" y2="15.8118" gradientUnits="userSpaceOnUse">
<stop stop-color="#5AC27C"/>
<stop offset="1" stop-color="#B2E235"/>
</linearGradient>
<linearGradient id="paint1_linear_2004_554" x1="10.1779" y1="17.3179" x2="10.1779" y2="19.2" gradientUnits="userSpaceOnUse">
<stop stop-color="#5AC27C"/>
<stop offset="1" stop-color="#B2E235"/>
</linearGradient>
</defs>
</svg>
