<svg t="1728378296730" class="icon" viewBox="0 0 1024 1024" version="1.1"
 xmlns="http://www.w3.org/2000/svg" 
 p-id="4291" width="200" 
 height="200">
 <path 
 d="M568.7 319.8l86.8 86.8v476.6h-466V319.8h379.2m29-70H178.9c-32.8 0-59.4 26.5-59.4 59.3v584.7c0 15.7 6.3 30.8 17.4 42 11.1 11.2 26.2 17.4 42 17.4h487.4c15.7 0 30.8-6.3 41.9-17.4 11.1-11.1 17.3-26.2 17.3-42V377.6L597.7 249.8z"
  fill="#515151" p-id="4292"></path>
  <path d="M776.7 70.8H357.9c-32.8 0-59.4 26.5-59.4 59.3v100h70v-89.3h379.2l86.8 86.8v476.6h-85.8v70h96.6c15.7 0 30.8-6.3 41.9-17.4 11.1-11.1 17.3-26.2 17.3-42V198.6L776.7 70.8z"
  fill="#515151"
   p-id="4293">
   </path></svg>